<svg width="33" height="33" viewBox="0 0 33 33" fill="none" xmlns="http://www.w3.org/2000/svg">
<rect x="1.27344" y="1.12744" width="31" height="31" rx="15.5" fill="#23272C"/>
<rect x="1.27344" y="1.12744" width="31" height="31" rx="15.5" stroke="#41464B"/>
<g clip-path="url(#clip0_5_1384)">
<mask id="path-2-inside-1_5_1384" fill="white">
<path d="M25.1067 11.6274C25.1067 10.7107 24.3567 9.96069 23.4401 9.96069H10.1067C9.19006 9.96069 8.44006 10.7107 8.44006 11.6274V21.6274C8.44006 22.544 9.19006 23.294 10.1067 23.294H23.4401C24.3567 23.294 25.1067 22.544 25.1067 21.6274V11.6274ZM23.4401 11.6274L16.7734 15.794L10.1067 11.6274H23.4401ZM23.4401 21.6274H10.1067V13.294L16.7734 17.4607L23.4401 13.294V21.6274Z"/>
</mask>
<path d="M23.4401 11.6274L24.5001 13.3234L30.4137 9.62736H23.4401V11.6274ZM16.7734 15.794L15.7134 17.49L16.7734 18.1525L17.8334 17.49L16.7734 15.794ZM10.1067 11.6274V9.62736H3.13314L9.04673 13.3234L10.1067 11.6274ZM23.4401 21.6274V23.6274H25.4401V21.6274H23.4401ZM10.1067 21.6274H8.10673V23.6274H10.1067V21.6274ZM10.1067 13.294L11.1667 11.598L8.10673 9.68553V13.294H10.1067ZM16.7734 17.4607L15.7134 19.1567L16.7734 19.8192L17.8334 19.1567L16.7734 17.4607ZM23.4401 13.294H25.4401V9.68553L22.3801 11.598L23.4401 13.294ZM27.1067 11.6274C27.1067 9.60612 25.4613 7.96069 23.4401 7.96069V11.9607C23.2522 11.9607 23.1067 11.8153 23.1067 11.6274H27.1067ZM23.4401 7.96069H10.1067V11.9607H23.4401V7.96069ZM10.1067 7.96069C8.08549 7.96069 6.44006 9.60612 6.44006 11.6274H10.4401C10.4401 11.8153 10.2946 11.9607 10.1067 11.9607V7.96069ZM6.44006 11.6274V21.6274H10.4401V11.6274H6.44006ZM6.44006 21.6274C6.44006 23.6486 8.08549 25.294 10.1067 25.294V21.294C10.2946 21.294 10.4401 21.4395 10.4401 21.6274H6.44006ZM10.1067 25.294H23.4401V21.294H10.1067V25.294ZM23.4401 25.294C25.4613 25.294 27.1067 23.6486 27.1067 21.6274H23.1067C23.1067 21.4395 23.2522 21.294 23.4401 21.294V25.294ZM27.1067 21.6274V11.6274H23.1067V21.6274H27.1067ZM22.3801 9.93136L15.7134 14.098L17.8334 17.49L24.5001 13.3234L22.3801 9.93136ZM17.8334 14.098L11.1667 9.93136L9.04673 13.3234L15.7134 17.49L17.8334 14.098ZM10.1067 13.6274H23.4401V9.62736H10.1067V13.6274ZM23.4401 19.6274H10.1067V23.6274H23.4401V19.6274ZM12.1067 21.6274V13.294H8.10673V21.6274H12.1067ZM9.04673 14.99L15.7134 19.1567L17.8334 15.7647L11.1667 11.598L9.04673 14.99ZM17.8334 19.1567L24.5001 14.99L22.3801 11.598L15.7134 15.7647L17.8334 19.1567ZM21.4401 13.294V21.6274H25.4401V13.294H21.4401Z" fill="#BFBFBF" mask="url(#path-2-inside-1_5_1384)"/>
</g>
<defs>
<clipPath id="clip0_5_1384">
<rect width="20" height="20" fill="white" transform="translate(6.77344 6.62744)"/>
</clipPath>
</defs>
</svg>
